<?xml version="1.0" encoding="utf-8"?>
<!-- Generator: Adobe Illustrator 15.0.2, SVG Export Plug-In . SVG Version: 6.00 Build 0)  -->
<!DOCTYPE svg PUBLIC "-//W3C//DTD SVG 1.1//EN" "http://www.w3.org/Graphics/SVG/1.1/DTD/svg11.dtd">
<svg version="1.1"
	 id="svg3559" sodipodi:docname="PGP.svg" inkscape:version="0.48.2 r9819" xmlns:sodipodi="http://sodipodi.sourceforge.net/DTD/sodipodi-0.dtd" xmlns:inkscape="http://www.inkscape.org/namespaces/inkscape" xmlns:rdf="http://www.w3.org/1999/02/22-rdf-syntax-ns#" xmlns:svg="http://www.w3.org/2000/svg" xmlns:cc="http://creativecommons.org/ns#" xmlns:dc="http://purl.org/dc/elements/1.1/"
	 xmlns="http://www.w3.org/2000/svg" xmlns:xlink="http://www.w3.org/1999/xlink" x="0px" y="0px" width="819px" height="486px"
	 viewBox="0 0 819 486" enable-background="new 0 0 819 486" xml:space="preserve">
<sodipodi:namedview  pagecolor="#ffffff" id="namedview4091" inkscape:window-height="1040" borderopacity="1" objecttolerance="10" bordercolor="#666666" gridtolerance="10" guidetolerance="10" inkscape:pageopacity="0" inkscape:pageshadow="2" inkscape:window-width="1606" showgrid="false" inkscape:cy="243" inkscape:zoom="1.2875855" inkscape:cx="409.5" inkscape:window-x="0" inkscape:window-y="0" inkscape:window-maximized="0" inkscape:current-layer="g3563">
	</sodipodi:namedview>
<path id="path3565" pointer-events="none" fill="#737678" d="M473.5,460.5v4c0,8-9,16-20,16v-4C464.5,476.5,473.5,468.5,473.5,460.5
	z"/>
<polygon id="rect3567" pointer-events="none" fill="none" points="401.847,418.5 401.847,418.5 401.847,418.5 "/>
<path id="path3569" pointer-events="none" fill="#737678" d="M445.155,460.5v4c0,0,0,1,0,2v-4
	C445.155,462.5,445.155,461.5,445.155,460.5"/>
<path id="path3571" pointer-events="none" fill="#737678" d="M445.155,462.5v4c0,0,0,1-1,2v-4
	C445.155,463.5,445.155,463.5,445.155,462.5"/>
<path id="path3573" pointer-events="none" fill="#737678" d="M444.155,464.5v4c0,0,0,1-1,2v-3
	C444.155,466.5,444.155,465.5,444.155,464.5"/>
<path id="path3575" pointer-events="none" fill="#737678" d="M471.5,467.5v3c-3,5-10,10-18,10v-4
	C461.5,476.5,468.5,472.5,471.5,467.5"/>
<path id="path3577" pointer-events="none" fill="#737678" d="M453.5,476.5v4h-60l-1-5L453.5,476.5z"/>
<polygon id="rect3579" pointer-events="none" fill="none" points="401.847,418.5 401.847,418.5 401.847,418.5 "/>
<path id="path3581" pointer-events="none" fill="#737678" d="M393.5,476.5v4c-11,0-20-8-20-16v-4
	C373.5,468.5,382.5,476.5,393.5,476.5z"/>
<polygon id="rect3583" pointer-events="none" fill="none" points="401.847,418.5 401.847,418.5 401.847,418.5 "/>
<path id="path3585" pointer-events="none" fill="#737678" d="M393.5,476.5v4c-11,0-20-8-20-16v-4
	C373.5,468.5,382.5,476.5,393.5,476.5"/>
<path id="path3587" pointer-events="none" fill="#C5C6C7" d="M411.5,418.5c11,0,20,6,24,14c2-1,4-2,7-2c7,0,13,5,13,12
	c10,0,18,10,18,17v1c0,8-9,16-20,16h-60c-11,0-20-8-20-16v-1c0-6,5-15,13-17l0,0C386.5,428.5,397.5,418.5,411.5,418.5z"/>
<path id="path3589" pointer-events="none" fill="#FFFFFF" stroke="#000000" stroke-miterlimit="10" d="M115.847,52.5h30v20h-30V52.5
	z"/>
<path id="path3591" pointer-events="none" fill="none" stroke="#000000" stroke-miterlimit="10" d="M115.847,52.5l15,10l15-10"/>
<rect id="rect3593" x="105.847" y="32.5" pointer-events="none" fill="none" width="50" height="20"/>
<text id="text3597" transform="matrix(1 0 0 1 118.1726 46.5)" font-family="'Helvetica'" font-size="12">Data</text>
<rect id="rect3599" x="96.847" y="133.5" pointer-events="none" fill="#FFFFFF" stroke="#000000" width="120" height="60"/>
<path id="path3601" pointer-events="none" fill="none" stroke="#000000" stroke-miterlimit="10" d="M109.847,133.5v60
	 M203.847,133.5v60"/>
<rect id="rect3603" x="106.847" y="143.5" pointer-events="none" fill="none" width="100" height="40"/>
<text id="text3607" transform="matrix(1 0 0 1 128.5134 160.5)" font-family="'Helvetica'" font-size="12">Symmetric</text>
<text id="text3609" transform="matrix(1 0 0 1 140.5046 174.5)" font-family="'Helvetica'" font-size="12">cipher</text>
<path id="path3611" pointer-events="none" fill="none" stroke="#000000" stroke-miterlimit="10" d="M131.348,74.834l15.499,52.666"
	/>
<path id="path3613" pointer-events="none" stroke="#000000" stroke-miterlimit="10" d="M148.847,132.5l-5-6l3,1l3-3L148.847,132.5z"
	/>
<path id="path3615" pointer-events="none" fill="none" stroke="#000000" stroke-miterlimit="10" d="M216.681,71.168L175.847,128.5"
	/>
<path id="path3617" pointer-events="none" stroke="#000000" stroke-miterlimit="10" d="M172.847,132.5l1-8l2,4h4L172.847,132.5z"/>
<path id="path3619" pointer-events="none" fill="none" stroke="#000000" stroke-miterlimit="10" d="M156.847,193.5l-1,25"/>
<path id="path3621" pointer-events="none" stroke="#000000" stroke-miterlimit="10" d="M155.847,223.5l-3-7l3,2l4-2L155.847,223.5z"
	/>
<rect id="rect3623" x="30.847" y="224.587" pointer-events="none" fill="none" width="100" height="39.998"/>
<text id="text3627" transform="matrix(1 0 0 1 72.2659 241.5864)" font-family="'Helvetica'" font-size="12">Encrypted</text>
<text id="text3629" transform="matrix(1 0 0 1 102.9397 255.5869)" font-family="'Helvetica'" font-size="12">data</text>
<rect id="rect3631" x="180.847" y="8.5" pointer-events="none" fill="none" width="201" height="88"/>
<path id="path3633" pointer-events="none" fill="#4D622C" d="M261.847,57.5v3l-2,3v-3L261.847,57.5z"/>
<path id="path3635" pointer-events="none" fill="#4D622C" d="M260.847,60.5l-1,3h-23l-1-3H260.847z"/>
<polygon id="rect3637" pointer-events="none" fill="none" points="180.847,8.5 180.847,8.5 180.847,8.5 "/>
<path id="path3639" pointer-events="none" fill="#4D622C" d="M236.847,61.5v2c0,0,0,1-1,1v-2
	C236.847,61.5,236.847,61.5,236.847,61.5z"/>
<polygon id="rect3641" pointer-events="none" fill="none" points="180.847,8.5 180.847,8.5 180.847,8.5 "/>
<path id="path3643" pointer-events="none" fill="#4D622C" d="M236.847,61.5v2c0,0-1,1-1,2v-3
	C235.847,61.5,236.847,61.5,236.847,61.5"/>
<path id="path3645" pointer-events="none" fill="#4D622C" d="M236.847,61.5v2l0,0V61.5L236.847,61.5"/>
<path id="path3647" pointer-events="none" fill="#4D622C" d="M235.847,62.5"/>
<polygon id="rect3649" pointer-events="none" fill="none" points="180.847,8.5 180.847,8.5 180.847,8.5 "/>
<path id="path3651" pointer-events="none" fill="#4D622C" d="M235.847,61.5v3c0,1-1,2-1,2v-2
	C234.847,63.5,235.847,62.5,235.847,61.5z"/>
<polygon id="rect3653" pointer-events="none" fill="none" points="180.847,8.5 180.847,8.5 180.847,8.5 "/>
<path id="path3655" pointer-events="none" fill="#4D622C" d="M236.847,61.5l-1,3c0,1-1,2-1,2v-2
	C234.847,63.5,235.847,62.5,236.847,61.5"/>
<polygon id="rect3657" pointer-events="none" fill="none" points="180.847,8.5 180.847,8.5 180.847,8.5 "/>
<path id="path3659" pointer-events="none" fill="#4D622C" d="M234.847,63.5v3c-1,1-1,1-2,2v-3
	C233.847,65.5,234.847,64.5,234.847,63.5z"/>
<polygon id="rect3661" pointer-events="none" fill="none" points="180.847,8.5 180.847,8.5 180.847,8.5 "/>
<path id="path3663" pointer-events="none" fill="#4D622C" d="M234.847,63.5v3c0,1-1,1-2,2v-3
	C232.847,64.5,234.847,64.5,234.847,63.5"/>
<polygon id="rect3665" pointer-events="none" fill="none" points="180.847,8.5 180.847,8.5 180.847,8.5 "/>
<path id="path3667" pointer-events="none" fill="#4D622C" d="M212.847,59.5v-2c0,2,1,4,3,6c0,1,1,1,1,1c2,2,5,3,9,3c2,0,5,0,7-2v3
	c-2,1-5,2-7,2c-4,0-7-1-9-3l-1-1C213.847,64.5,212.847,62.5,212.847,59.5z"/>
<polygon id="rect3669" pointer-events="none" fill="none" points="180.847,8.5 180.847,8.5 180.847,8.5 "/>
<path id="path3671" pointer-events="none" fill="#4D622C" d="M233.847,64.5c-2,2-6,3-8,3c-4,0-7-1-9-3c0,0-1,0-1-1c-2-2-3-4-3-6v2
	c0,3,1,5,3,7l1,1c2,2,5,3,9,3c2,0,5-1,7-2L233.847,64.5z"/>
<path id="path3673" pointer-events="none" fill="#769B3F" d="M257.847,53.5l4,4l-2,3l-23,1c0,0,0,0-1,1c0,0-1,1-1,2c-1,0-1,1-2,1
	c-2,2-5,2-7,2c-4,0-7-1-9-3c0,0-1,0-1-1c-4-4-4-11,2-15c2-1,5-2,8-2c2,0,5,1,7,2s3,3,3,3h1h6l2,3h5l2,1l1,1L257.847,53.5z
	 M219.847,59.5c2,0,3-1,3-3c0-1-1-2-3-2l0,0c-2,0-3,1-3,3C216.847,58.5,217.847,59.5,219.847,59.5L219.847,59.5"/>
<rect id="rect3675" x="180.847" y="10.5" pointer-events="none" fill="none" width="100" height="40"/>
<text id="text3679" transform="matrix(1 0 0 1 202.4929 16.3345)" font-family="'Helvetica'" font-size="12">Generated</text>
<text id="text3681" transform="matrix(1 0 0 1 210.5027 28.9175)" font-family="'Helvetica'" font-size="12">random</text>
<text id="text3683" transform="matrix(1 0 0 1 192.5115 41.5)" font-family="'Helvetica'" font-size="12">symmetric key</text>
<path id="path3685" pointer-events="none" fill="#3C4929" d="M342.847,48.5v-3v-3l-1,3L342.847,48.5z"/>
<path id="path3687" pointer-events="none" fill="#3C4929" d="M337.847,44.5l-1,16l1,16l1-16L337.847,44.5z"/>
<path id="path3689" pointer-events="none" fill="#3C4929" d="M342.847,71.5l-1,3l1,5v-4V71.5z"/>
<path id="path3691" pointer-events="none" fill="#B7CA9D" d="M313.847,55.5l2,9l-2,8l-3-9L313.847,55.5z"/>
<path id="path3693" pointer-events="none" fill="#759C3E" d="M343.847,56.5v-5h13l-1,5H343.847z"/>
<path id="path3695" pointer-events="none" fill="#4B612C" d="M353.847,44.5h6l8,16h-7l-4-9h-12l1,9h-50l2-5h7l2-4h31v-7h5v-2h10
	L353.847,44.5z"/>
<path id="path3697" pointer-events="none" fill="#759C3E" d="M363.847,68.5l-2,3l-2,5h-6l-1,3h-10v-3h-5v-4v-3h-6l0,0l0,0v7h-6v-4
	h-6l-1-7h-7l2,7h-6l-3-7h-7l-2-5h22h7h7l0,0h7h7v4h10l1-4h4h7L363.847,68.5z"/>
<path id="path3699" pointer-events="none" fill="#3C4929" d="M358.847,65.5l2-5l-4-9l-1,5L358.847,65.5z"/>
<path id="path3701" pointer-events="none" fill="#4B612C" d="M355.847,64.5l1,5h-12l1-5H355.847z"/>
<path id="path3703" pointer-events="none" fill="#3C4929" d="M356.847,51.5l4,9l-1,2l-1,3l-2,4l-1-5l1-4l-1-4L356.847,51.5z"/>
<rect id="rect3705" x="289.847" y="5.665" pointer-events="none" fill="none" width="100" height="40"/>
<text id="text3709" transform="matrix(1 0 0 1 312.1697 22.6655)" font-family="'Helvetica'" font-size="12">Public-key</text>
<text id="text3711" transform="matrix(1 0 0 1 310.4968 36.6655)" font-family="'Helvetica'" font-size="12">of recipient</text>
<rect id="rect3713" x="239.847" y="133.5" pointer-events="none" fill="#FFFFFF" stroke="#000000" width="120" height="60"/>
<path id="path3715" pointer-events="none" fill="none" stroke="#000000" stroke-miterlimit="10" d="M252.847,133.5v60
	 M346.847,133.5v60"/>
<path id="path3717" pointer-events="none" fill="none" stroke="#000000" stroke-miterlimit="10" d="M236.847,70.5l30,57"/>
<path id="path3719" pointer-events="none" stroke="#000000" stroke-miterlimit="10" d="M268.847,132.5l-6-5h4l2-3V132.5z"/>
<path id="path3721" pointer-events="none" fill="none" stroke="#000000" stroke-miterlimit="10" d="M329.204,78.807l0.573,48.71"/>
<path id="path3723" pointer-events="none" stroke="#000000" stroke-miterlimit="10" d="M329.847,132.5l-4-7l4,2l3-2L329.847,132.5z"
	/>
<rect id="rect3725" x="230.675" y="193.5" pointer-events="none" fill="none" width="87" height="65"/>
<rect id="rect3727" x="255.675" y="224.5" pointer-events="none" fill="#FFFFFF" stroke="#000000" width="62" height="34"/>
<path id="path3729" pointer-events="none" fill="#4D622C" d="M311.675,242.5v3l-2,3v-3L311.675,242.5z"/>
<path id="path3731" pointer-events="none" fill="#4D622C" d="M310.675,244.083l-1,3h-23l-1-3H310.675z"/>
<polygon id="rect3733" pointer-events="none" fill="none" points="244.847,193.5 244.847,193.5 244.847,193.5 "/>
<path id="path3735" pointer-events="none" fill="#4D622C" d="M286.675,246.5v2c0,0,0,1-1,1v-2
	C286.675,246.5,286.675,246.5,286.675,246.5z"/>
<polygon id="rect3737" pointer-events="none" fill="none" points="244.847,193.5 244.847,193.5 244.847,193.5 "/>
<path id="path3739" pointer-events="none" fill="#4D622C" d="M286.675,246.5v2c0,0-1,1-1,2v-3
	C285.675,246.5,286.675,246.5,286.675,246.5"/>
<path id="path3741" pointer-events="none" fill="#4D622C" d="M286.675,246.5v2l0,0V246.5L286.675,246.5"/>
<path id="path3743" pointer-events="none" fill="#4D622C" d="M285.675,247.5"/>
<polygon id="rect3745" pointer-events="none" fill="none" points="244.847,193.5 244.847,193.5 244.847,193.5 "/>
<path id="path3747" pointer-events="none" fill="#4D622C" d="M285.675,246.5v3c0,1-1,2-1,2v-2
	C284.675,248.5,285.675,247.5,285.675,246.5z"/>
<polygon id="rect3749" pointer-events="none" fill="none" points="244.847,193.5 244.847,193.5 244.847,193.5 "/>
<path id="path3751" pointer-events="none" fill="#4D622C" d="M286.675,246.5l-1,3c0,1-1,2-1,2v-2
	C284.675,248.5,285.675,247.5,286.675,246.5"/>
<polygon id="rect3753" pointer-events="none" fill="none" points="244.847,193.5 244.847,193.5 244.847,193.5 "/>
<path id="path3755" pointer-events="none" fill="#4D622C" d="M284.675,248.5v3c-1,1-1,1-2,2v-3
	C283.675,250.5,284.675,249.5,284.675,248.5z"/>
<polygon id="rect3757" pointer-events="none" fill="none" points="244.847,193.5 244.847,193.5 244.847,193.5 "/>
<path id="path3759" pointer-events="none" fill="#4D622C" d="M284.675,248.5v3c0,1-1,1-2,2v-3
	C282.675,249.5,284.675,249.5,284.675,248.5"/>
<polygon id="rect3761" pointer-events="none" fill="none" points="244.847,193.5 244.847,193.5 244.847,193.5 "/>
<path id="path3763" pointer-events="none" fill="#4D622C" d="M262.675,244.5v-2c0,2,1,4,3,6c0,1,1,1,1,1c2,2,5,3,9,3c2,0,5,0,7-2v3
	c-2,1-5,2-7,2c-4,0-7-1-9-3l-1-1C263.675,249.5,262.675,247.5,262.675,244.5z"/>
<polygon id="rect3765" pointer-events="none" fill="none" points="244.847,193.5 244.847,193.5 244.847,193.5 "/>
<path id="path3767" pointer-events="none" fill="#4D622C" d="M283.675,248.083c-2,2-6,3-8,3c-4,0-7-1-9-3c0,0-1,0-1-1c-2-2-3-4-3-6
	v2c0,3,1,5,3,7l1,1c2,2,5,3,9,3c2,0,5-1,7-2L283.675,248.083z"/>
<path id="path3769" pointer-events="none" fill="#769B3F" d="M307.675,237.083l4,4l-2,3l-23,1c0,0,0,0-1,1c0,0-1,1-1,2c-1,0-1,1-2,1
	c-2,2-5,2-7,2c-4,0-7-1-9-3c0,0-1,0-1-1c-4-4-4-11,2-15c2-1,5-2,8-2c2,0,5,1,7,2s3,3,3,3h1h6l2,3h5l2,1l1,1L307.675,237.083z
	 M269.675,243.083c2,0,3-1,3-3c0-1-1-2-3-2l0,0c-2,0-3,1-3,3C266.675,242.083,267.675,243.083,269.675,243.083L269.675,243.083"/>
<path id="path3771" pointer-events="none" fill="none" stroke="#000000" stroke-miterlimit="10" d="M299.847,193.5l1,25"/>
<path id="path3773" pointer-events="none" stroke="#000000" stroke-miterlimit="10" d="M300.847,223.5l-4-7l4,2l3-2L300.847,223.5z"
	/>
<rect id="rect3775" x="319.092" y="217.083" pointer-events="none" fill="none" width="100" height="40"/>
<text id="text3779" transform="matrix(1 0 0 1 323.925 238.3345)" font-family="'Helvetica'" font-size="12">Encrypted</text>
<text id="text3781" transform="matrix(1 0 0 1 323.925 252.335)" font-family="'Helvetica'" font-size="12">symmetric key</text>
<rect id="rect3783" x="130.847" y="224.5" pointer-events="none" fill="none" width="50" height="40"/>
<rect id="rect3785" x="130.847" y="224.5" pointer-events="none" fill="none" width="50" height="40"/>
<rect id="rect3787" x="130.847" y="224.5" pointer-events="none" fill="#FFFFFF" stroke="#000000" width="50" height="40"/>
<path id="path3789" pointer-events="none" fill="#FFFFFF" stroke="#000000" stroke-miterlimit="10" d="M140.847,234.5h30v20h-30
	V234.5z"/>
<path id="path3791" pointer-events="none" fill="none" stroke="#000000" stroke-miterlimit="10" d="M140.847,234.5l15,10l15-10"/>
<path id="path3793" pointer-events="none" fill="none" stroke="#000000" stroke-miterlimit="10" d="M155.847,264.5v17
	c0,6.666,3.333,10,10,10h16c6.666,0,10,3.334,10,10v10"/>
<path id="path3795" pointer-events="none" stroke="#000000" stroke-miterlimit="10" d="M191.847,316.5l-3-7l3,2l4-2L191.847,316.5z"
	/>
<path id="path3797" pointer-events="none" fill="none" stroke="#000000" stroke-miterlimit="10" d="M286.675,258.5v20
	c0,6.666-3.334,10-10,10h-29c-6.667,0-10,3.334-10,10v13"/>
<path id="path3799" pointer-events="none" stroke="#000000" stroke-miterlimit="10" d="M237.255,316.5l-3-7l3,2l4-2L237.255,316.5z"
	/>
<path id="path3801" pointer-events="none" fill="#3C492A" d="M672.155,241.5v-2c2,0,4,0,4-3c0-2-2-4-4-4l0,0c-3,0-5,2-5,4
	C667.155,239.5,669.155,241.5,672.155,241.5z"/>
<path id="path3803" pointer-events="none" fill="#3C492A" d="M689.155,254.5v-42h-81v42H689.155z M619.155,228.5l30-1c0,0,1-1,1-2
	c1-1,1-1,2-2s1-2,2-2c3-3,7-4,11-4s8,1,11,4c0,1,1,1,1,2c6,7,5,17-2,23c-3,2-7,4-10,4c-4,0-8-2-11-4c-2-2-3-4-3-4h-2h-8l-2-5l-7,1
	l-2-3h-2l-6,3l-6-5L619.155,228.5z"/>
<rect id="rect3805" x="667.155" y="235.5" pointer-events="none" fill="#3C492A" width="9" height="2"/>
<path id="path3807" pointer-events="none" fill="#769B3F" d="M672.155,242.5L672.155,242.5c2,0,4-2,4-4c0-3-2-5-4-5l0,0
	c-3,0-5,2-5,5C667.155,240.5,669.155,242.5,672.155,242.5z"/>
<path id="path3809" pointer-events="none" fill="#769B3F" d="M689.155,259.5v-42h-81v42H689.155z M619.155,232.5h30c0,0,1-1,1-2
	c1-1,1-2,2-3c1,0,1-1,2-2c3-2,7-4,11-4s8,2,11,5l1,1c6,7,5,18-2,23c-3,3-7,4-10,4c-4,0-8-1-11-4c-2-1-3-4-3-4h-2h-8l-2-4h-7l-2-2
	l-2-1l-6,4l-6-6L619.155,232.5z"/>
<path id="path3811" pointer-events="none" fill="#FFFFFF" stroke="#000000" stroke-miterlimit="10" d="M169.847,435.5v-23h103v23
	H169.847z"/>
<path id="path3813" pointer-events="none" fill="none" stroke="#000000" stroke-miterlimit="10" d="M169.847,435.5v49h103v-49"/>
<rect id="rect3815" x="172.847" y="403.5" pointer-events="none" fill="none" width="100" height="40"/>
<text id="text3819" transform="matrix(1 0 0 1 183.2664 427.5)" font-family="'Helvetica-Bold'" font-size="12">PGP Message</text>
<path id="path3821" pointer-events="none" fill="none" stroke="#000000" stroke-miterlimit="10" d="M221.847,378.5v27"/>
<path id="path3823" pointer-events="none" stroke="#000000" stroke-miterlimit="10" d="M221.847,411.5l-4-7l4,1l3-1L221.847,411.5z"
	/>
<path id="path3825" pointer-events="none" fill="none" stroke="#000000" stroke-miterlimit="10" d="M272.334,448.5l99.167,1"/>
<path id="path3827" pointer-events="none" stroke="#000000" stroke-miterlimit="10" d="M371.665,449.5l-7,3l2-3l-2-4L371.665,449.5z
	"/>
<rect id="rect3829" x="370.5" y="434.5" pointer-events="none" fill="none" width="100" height="40"/>
<text id="text3833" transform="matrix(1 0 0 1 391.4841 451.5)" font-family="'Helvetica'" font-size="12">Unsecured</text>
<text id="text3835" transform="matrix(1 0 0 1 391.4783 465.5)" font-family="'Helvetica'" font-size="12">connection</text>
<path id="path3837" pointer-events="none" fill="#FFFFFF" stroke="#000000" stroke-miterlimit="10" d="M537.155,436.5v-23h103v23
	H537.155z"/>
<path id="path3839" pointer-events="none" fill="none" stroke="#000000" stroke-miterlimit="10" d="M537.155,436.5v49h103v-49"/>
<rect id="rect3841" x="538.155" y="405.5" pointer-events="none" fill="none" width="100" height="40"/>
<text id="text3845" transform="matrix(1 0 0 1 548.5735 429.5)" font-family="'Helvetica-Bold'" font-size="12">PGP Message</text>
<rect id="rect3851" x="161.847" y="318.5" pointer-events="none" fill="none" width="120" height="60"/>
<rect id="rect3853" x="161.847" y="318.5" pointer-events="none" fill="#FFFFFF" stroke="#000000" width="120" height="60"/>
<path id="path3855" pointer-events="none" fill="none" stroke="#000000" stroke-miterlimit="10" d="M174.847,318.5v60
	 M268.847,318.5v60"/>
<rect id="rect3857" x="171.847" y="328.5" pointer-events="none" fill="none" width="100" height="40"/>
<text id="text3861" transform="matrix(1 0 0 1 176.8259 345.5)" font-family="'Helvetica'" font-size="12">CRC24 calculate</text>
<text id="text3863" transform="matrix(1 0 0 1 180.1453 359.5)" font-family="'Helvetica'" font-size="12">Base64 encode</text>
<rect id="rect3865" x="528.155" y="318.5" pointer-events="none" fill="none" width="120" height="60"/>
<rect id="rect3867" x="528.155" y="318.5" pointer-events="none" fill="#FFFFFF" stroke="#000000" width="120" height="60"/>
<path id="path3869" pointer-events="none" fill="none" stroke="#000000" stroke-miterlimit="10" d="M541.155,318.5v60
	 M635.155,318.5v60"/>
<rect id="rect3871" x="538.155" y="328.5" pointer-events="none" fill="none" width="100" height="40"/>
<text id="text3875" transform="matrix(1 0 0 1 551.1399 345.5)" font-family="'Helvetica'" font-size="12">CRC24 check</text>
<text id="text3877" transform="matrix(1 0 0 1 546.4524 359.5)" font-family="'Helvetica'" font-size="12">Base64 decode</text>
<path id="path3879" pointer-events="none" fill="none" stroke="#000000" stroke-miterlimit="10" d="M588.155,413.5v-29"/>
<path id="path3881" pointer-events="none" stroke="#000000" stroke-miterlimit="10" d="M588.155,379.5l3,7l-3-2l-4,2L588.155,379.5z
	"/>
<rect id="rect3883" x="503.406" y="214.083" pointer-events="none" fill="none" width="100" height="40"/>
<text id="text3887" transform="matrix(1 0 0 1 505.4055 235.3345)" font-family="'Helvetica'" font-size="12">Encrypted</text>
<text id="text3889" transform="matrix(1 0 0 1 505.4055 249.335)" font-family="'Helvetica'" font-size="12">symmetric key</text>
<rect id="rect3891" x="412.155" y="190.5" pointer-events="none" fill="none" width="87" height="65"/>
<rect id="rect3893" x="437.155" y="221.5" pointer-events="none" fill="#FFFFFF" stroke="#000000" width="62" height="34"/>
<path id="path3895" pointer-events="none" fill="#4D622C" d="M493.155,239.5v3l-2,3v-3L493.155,239.5z"/>
<path id="path3897" pointer-events="none" fill="#4D622C" d="M492.155,241.083l-1,3h-23l-1-3H492.155z"/>
<polygon id="rect3899" pointer-events="none" fill="none" points="440.5,190.5 440.5,190.5 440.5,190.5 "/>
<path id="path3901" pointer-events="none" fill="#4D622C" d="M468.155,243.5v2c0,0,0,1-1,1v-2
	C468.155,243.5,468.155,243.5,468.155,243.5z"/>
<polygon id="rect3903" pointer-events="none" fill="none" points="440.5,190.5 440.5,190.5 440.5,190.5 "/>
<path id="path3905" pointer-events="none" fill="#4D622C" d="M468.155,243.5v2c0,0-1,1-1,2v-3
	C467.155,243.5,468.155,243.5,468.155,243.5"/>
<path id="path3907" pointer-events="none" fill="#4D622C" d="M468.155,243.5v2l0,0V243.5L468.155,243.5"/>
<path id="path3909" pointer-events="none" fill="#4D622C" d="M467.155,244.5"/>
<polygon id="rect3911" pointer-events="none" fill="none" points="440.5,190.5 440.5,190.5 440.5,190.5 "/>
<path id="path3913" pointer-events="none" fill="#4D622C" d="M467.155,243.5v3c0,1-1,2-1,2v-2
	C466.155,245.5,467.155,244.5,467.155,243.5z"/>
<polygon id="rect3915" pointer-events="none" fill="none" points="440.5,190.5 440.5,190.5 440.5,190.5 "/>
<path id="path3917" pointer-events="none" fill="#4D622C" d="M468.155,243.5l-1,3c0,1-1,2-1,2v-2
	C466.155,245.5,467.155,244.5,468.155,243.5"/>
<polygon id="rect3919" pointer-events="none" fill="none" points="440.5,190.5 440.5,190.5 440.5,190.5 "/>
<path id="path3921" pointer-events="none" fill="#4D622C" d="M466.155,245.5v3c-1,1-1,1-2,2v-3
	C465.155,247.5,466.155,246.5,466.155,245.5z"/>
<polygon id="rect3923" pointer-events="none" fill="none" points="440.5,190.5 440.5,190.5 440.5,190.5 "/>
<path id="path3925" pointer-events="none" fill="#4D622C" d="M466.155,245.5v3c0,1-1,1-2,2v-3
	C464.155,246.5,466.155,246.5,466.155,245.5"/>
<polygon id="rect3927" pointer-events="none" fill="none" points="440.5,190.5 440.5,190.5 440.5,190.5 "/>
<path id="path3929" pointer-events="none" fill="#4D622C" d="M444.155,241.5v-2c0,2,1,4,3,6c0,1,1,1,1,1c2,2,5,3,9,3c2,0,5,0,7-2v3
	c-2,1-5,2-7,2c-4,0-7-1-9-3l-1-1C445.155,246.5,444.155,244.5,444.155,241.5z"/>
<polygon id="rect3931" pointer-events="none" fill="none" points="440.5,190.5 440.5,190.5 440.5,190.5 "/>
<path id="path3933" pointer-events="none" fill="#4D622C" d="M465.155,245.083c-2,2-6,3-8,3c-4,0-7-1-9-3c0,0-1,0-1-1c-2-2-3-4-3-6
	v2c0,3,1,5,3,7l1,1c2,2,5,3,9,3c2,0,5-1,7-2L465.155,245.083z"/>
<path id="path3935" pointer-events="none" fill="#769B3F" d="M489.155,234.083l4,4l-2,3l-23,1c0,0,0,0-1,1c0,0-1,1-1,2c-1,0-1,1-2,1
	c-2,2-5,2-7,2c-4,0-7-1-9-3c0,0-1,0-1-1c-4-4-4-11,2-15c2-1,5-2,8-2c2,0,5,1,7,2s3,3,3,3h1h6l2,3h5l2,1l1,1L489.155,234.083z
	 M451.155,240.083c2,0,3-1,3-3c0-1-1-2-3-2l0,0c-2,0-3,1-3,3C448.155,239.083,449.155,240.083,451.155,240.083L451.155,240.083"/>
<rect id="rect3937" x="674.989" y="215.586" pointer-events="none" fill="none" width="100" height="40.002"/>
<text id="text3941" transform="matrix(1 0 0 1 694.9788 232.5864)" font-family="'Helvetica'" font-size="12">Private-key</text>
<text id="text3943" transform="matrix(1 0 0 1 695.6379 246.5869)" font-family="'Helvetica'" font-size="12">of recipient</text>
<rect id="rect3945" x="501.155" y="133.5" pointer-events="none" fill="#FFFFFF" stroke="#000000" width="120" height="60"/>
<path id="path3947" pointer-events="none" fill="none" stroke="#000000" stroke-miterlimit="10" d="M514.155,133.5v60
	 M608.155,133.5v60"/>
<path id="path3949" pointer-events="none" fill="none" stroke="#000000" stroke-miterlimit="10" d="M558.155,318.5v-22
	c0-6.666-3.334-10-10-10h-70c-6.667,0-10-3.334-10-10v-15"/>
<path id="path3951" pointer-events="none" stroke="#000000" stroke-miterlimit="10" d="M468.155,256.5l4,7l-4-2l-3,2L468.155,256.5z
	"/>
<rect id="rect3953" x="739.155" y="143.5" pointer-events="none" fill="none" width="50" height="40"/>
<rect id="rect3955" x="739.155" y="143.5" pointer-events="none" fill="none" width="50" height="40"/>
<rect id="rect3957" x="739.155" y="143.5" pointer-events="none" fill="#FFFFFF" stroke="#000000" width="50" height="40"/>
<path id="path3959" pointer-events="none" fill="#FFFFFF" stroke="#000000" stroke-miterlimit="10" d="M749.155,153.5h30v20h-30
	V153.5z"/>
<path id="path3961" pointer-events="none" fill="none" stroke="#000000" stroke-miterlimit="10" d="M749.155,153.5l15,10l15-10"/>
<rect id="rect3963" x="639.155" y="143.587" pointer-events="none" fill="none" width="100" height="40"/>
<text id="text3967" transform="matrix(1 0 0 1 680.2893 160.5864)" font-family="'Helvetica'" font-size="12">Encrypted</text>
<text id="text3969" transform="matrix(1 0 0 1 710.9631 174.5864)" font-family="'Helvetica'" font-size="12">data</text>
<path id="path3971" pointer-events="none" fill="none" stroke="#000000" stroke-miterlimit="10" d="M618.155,318.5v-16
	c0-6.666,3.333-10,10-10h126c6.666,0,10-3.334,10-10v-93"/>
<path id="path3973" pointer-events="none" stroke="#000000" stroke-miterlimit="10" d="M764.155,184.5l4,7l-4-2l-3,2L764.155,184.5z
	"/>
<path id="path3975" pointer-events="none" fill="none" stroke="#000000" stroke-miterlimit="10" d="M468.155,221.5l57-25"/>
<path id="path3977" pointer-events="none" stroke="#000000" stroke-miterlimit="10" d="M529.155,193.5l-4,7v-4l-3-3H529.155z"/>
<path id="path3979" pointer-events="none" fill="none" stroke="#000000" stroke-miterlimit="10" d="M650.32,212.499L597.155,195.5"
	/>
<path id="path3981" pointer-events="none" stroke="#000000" stroke-miterlimit="10" d="M595.656,194.251l7.066,0.259l-2.502,2.597
	l-0.71,3.937L595.656,194.251z"/>
<rect id="rect3983" x="612.155" y="12.5" pointer-events="none" fill="#FFFFFF" stroke="#000000" width="120" height="60"/>
<path id="path3985" pointer-events="none" fill="none" stroke="#000000" stroke-miterlimit="10" d="M625.155,12.5v60 M719.155,12.5
	v60"/>
<rect id="rect3987" x="622.155" y="22.5" pointer-events="none" fill="none" width="100" height="40"/>
<text id="text3991" transform="matrix(1 0 0 1 643.8206 39.5)" font-family="'Helvetica'" font-size="12">Symmetric</text>
<text id="text3993" transform="matrix(1 0 0 1 655.8118 53.5)" font-family="'Helvetica'" font-size="12">cipher</text>
<path id="path3995" pointer-events="none" fill="none" stroke="#000000" stroke-miterlimit="10" d="M764.155,143.5l-58-66"/>
<path id="path3997" pointer-events="none" stroke="#000000" stroke-miterlimit="10" d="M703.155,73.5l7,3l-4,1l-1,3L703.155,73.5z"
	/>
<path id="path3999" pointer-events="none" fill="#4D622C" d="M597.155,99.5v3l-3,3v-3L597.155,99.5z"/>
<path id="path4001" pointer-events="none" fill="#4D622C" d="M595.155,102.5l-1,3h-23v-3H595.155z"/>
<polygon id="rect4003" pointer-events="none" fill="none" points="516.155,50.5 516.155,50.5 516.155,50.5 "/>
<path id="path4005" pointer-events="none" fill="#4D622C" d="M571.155,103.5v2v1v-2C571.155,103.5,571.155,103.5,571.155,103.5z"/>
<polygon id="rect4007" pointer-events="none" fill="none" points="516.155,50.5 516.155,50.5 516.155,50.5 "/>
<path id="path4009" pointer-events="none" fill="#4D622C" d="M571.155,103.5v2c0,0,0,1-1,2v-3
	C570.155,103.5,571.155,103.5,571.155,103.5"/>
<path id="path4011" pointer-events="none" fill="#4D622C" d="M571.155,103.5v2l0,0V103.5L571.155,103.5"/>
<path id="path4013" pointer-events="none" fill="#4D622C" d="M571.155,104.5"/>
<polygon id="rect4015" pointer-events="none" fill="none" points="516.155,50.5 516.155,50.5 516.155,50.5 "/>
<path id="path4017" pointer-events="none" fill="#4D622C" d="M571.155,103.5v3c-1,1-1,2-2,2v-2
	C570.155,105.5,571.155,104.5,571.155,103.5z"/>
<polygon id="rect4019" pointer-events="none" fill="none" points="516.155,50.5 516.155,50.5 516.155,50.5 "/>
<path id="path4021" pointer-events="none" fill="#4D622C" d="M571.155,103.5v3c-1,1-1,2-2,2v-2
	C570.155,105.5,571.155,104.5,571.155,103.5"/>
<polygon id="rect4023" pointer-events="none" fill="none" points="516.155,50.5 516.155,50.5 516.155,50.5 "/>
<path id="path4025" pointer-events="none" fill="#4D622C" d="M570.155,105.5l-1,3c0,1-1,1-1,2l-1-3
	C568.155,107.5,569.155,106.5,570.155,105.5z"/>
<polygon id="rect4027" pointer-events="none" fill="none" points="516.155,50.5 516.155,50.5 516.155,50.5 "/>
<path id="path4029" pointer-events="none" fill="#4D622C" d="M570.155,105.5v3c-1,1-2,1-2,2l-1-3
	C568.155,106.5,569.155,106.5,570.155,105.5"/>
<polygon id="rect4031" pointer-events="none" fill="none" points="516.155,50.5 516.155,50.5 516.155,50.5 "/>
<path id="path4033" pointer-events="none" fill="#4D622C" d="M548.155,101.5v-2c0,2,1,4,3,6c0,1,0,1,0,1c3,2,6,3,9,3s6,0,8-2v3
	c-2,1-5,2-8,2s-6-1-9-3v-1C549.155,106.5,548.155,104.5,548.155,101.5z"/>
<polygon id="rect4035" pointer-events="none" fill="none" points="516.155,50.5 516.155,50.5 516.155,50.5 "/>
<path id="path4037" pointer-events="none" fill="#4D622C" d="M568.155,106.5c-2,2-5,3-8,3s-6-1-9-3c0,0,0,0,0-1c-2-2-3-4-3-6v2
	c0,3,1,5,3,7v1c3,2,6,3,9,3s6-1,8-2V106.5z"/>
<path id="path4039" pointer-events="none" fill="#769B3F" d="M592.155,95.5l5,4l-3,3l-23,1c0,0,0,0,0,1c-1,0-1,1-2,2l-1,1
	c-2,2-5,2-8,2s-6-1-9-3c0,0,0,0,0-1c-5-4-4-11,1-15c3-1,5-2,8-2s5,1,8,2c1,1,2,3,3,3h1h5l2,3h5l2,1l2,1L592.155,95.5z
	 M555.155,101.5c1,0,3-1,3-3c0-1-2-2-3-2l0,0c-2,0-4,1-4,3C551.155,100.5,553.155,101.5,555.155,101.5L555.155,101.5"/>
<path id="path4041" pointer-events="none" fill="none" stroke="#000000" stroke-miterlimit="10" d="M560.916,133.512l-0.522-15.023"
	/>
<path id="path4043" pointer-events="none" stroke="#000000" stroke-miterlimit="10" d="M560.155,114.917l4,7l-4-2l-3,2
	L560.155,114.917z"/>
<path id="path4045" pointer-events="none" fill="none" stroke="#000000" stroke-miterlimit="10" d="M598.655,98.167l38.5-22.667"/>
<path id="path4047" pointer-events="none" stroke="#000000" stroke-miterlimit="10" d="M640.693,73.886l-3.116,6.503l-0.562-3.96
	l-4.241-1.417L640.693,73.886z"/>
<path id="path4049" pointer-events="none" fill="#FFFFFF" stroke="#000000" stroke-miterlimit="10" d="M469.155,34.5h30v20h-30V34.5
	z"/>
<path id="path4051" pointer-events="none" fill="none" stroke="#000000" stroke-miterlimit="10" d="M469.155,34.5l15,10l15-10"/>
<rect id="rect4053" x="459.155" y="14.5" pointer-events="none" fill="none" width="50" height="20"/>
<text id="text4057" transform="matrix(1 0 0 1 471.4797 28.5)" font-family="'Helvetica'" font-size="12">Data</text>
<path id="path4059" pointer-events="none" fill="none" stroke="#000000" stroke-miterlimit="10" d="M612.155,42.5l-107,2"/>
<path id="path4061" pointer-events="none" stroke="#000000" stroke-miterlimit="10" d="M500.155,44.5l7-4l-2,4l2,3L500.155,44.5z"/>
<rect id="rect4063" x="462.155" y="72.5" pointer-events="none" fill="none" width="100" height="40"/>
<text id="text4067" transform="matrix(1 0 0 1 464.1536 103.5)" font-family="'Helvetica'" font-size="12">Symmetric key</text>
<rect id="rect4069" x="512.155" y="143.5" pointer-events="none" fill="none" width="100" height="40"/>
<text id="text4073" transform="matrix(1 0 0 1 534.4768 160.5)" font-family="'Helvetica'" font-size="12">Public-key</text>
<text id="text4075" transform="matrix(1 0 0 1 545.8118 174.5)" font-family="'Helvetica'" font-size="12">cipher</text>
<rect id="rect4077" x="250.847" y="143.5" pointer-events="none" fill="none" width="100" height="40"/>
<text id="text4081" transform="matrix(1 0 0 1 273.1697 160.5)" font-family="'Helvetica'" font-size="12">Public-key</text>
<text id="text4083" transform="matrix(1 0 0 1 284.5046 174.5)" font-family="'Helvetica'" font-size="12">cipher</text>
<rect id="rect4085" x="45.847" y="2.5" pointer-events="none" fill="none" width="100" height="40"/>
<path id="path3825_1_" pointer-events="none" fill="none" stroke="#000000" stroke-miterlimit="10" d="M473.065,448.941
	l57.605,0.651"/>
<path id="path3827_1_" pointer-events="none" stroke="#000000" stroke-miterlimit="10" d="M535.727,449.758l-7,3l2-3l-2-4
	L535.727,449.758z"/>
</svg>
