<?xml version="1.0" encoding="UTF-8" standalone="no"?>
<svg
   xmlns:dc="http://purl.org/dc/elements/1.1/"
   xmlns:cc="http://creativecommons.org/ns#"
   xmlns:rdf="http://www.w3.org/1999/02/22-rdf-syntax-ns#"
   xmlns:svg="http://www.w3.org/2000/svg"
   xmlns="http://www.w3.org/2000/svg"
   xmlns:sodipodi="http://sodipodi.sourceforge.net/DTD/sodipodi-0.dtd"
   xmlns:inkscape="http://www.inkscape.org/namespaces/inkscape"
   width="819px"
   height="486px"
   version="1.1"
   id="svg3559"
   inkscape:version="0.48.2 r9819"
   sodipodi:docname="PGP.svg">
  <metadata
     id="metadata4093">
    <rdf:RDF>
      <cc:Work
         rdf:about="">
        <dc:format>image/svg+xml</dc:format>
        <dc:type
           rdf:resource="http://purl.org/dc/dcmitype/StillImage" />
      </cc:Work>
    </rdf:RDF>
  </metadata>
  <sodipodi:namedview
     pagecolor="#ffffff"
     bordercolor="#666666"
     borderopacity="1"
     objecttolerance="10"
     gridtolerance="10"
     guidetolerance="10"
     inkscape:pageopacity="0"
     inkscape:pageshadow="2"
     inkscape:window-width="1606"
     inkscape:window-height="1040"
     id="namedview4091"
     showgrid="false"
     inkscape:zoom="1.2875855"
     inkscape:cx="409.5"
     inkscape:cy="243"
     inkscape:window-x="0"
     inkscape:window-y="0"
     inkscape:window-maximized="0"
     inkscape:current-layer="g3563" />
  <defs
     id="defs3561" />
  <g
     transform="translate(0.5,0.5)"
     id="g3563">
    <path
       d="M 473 460 L 473 464 C 473 472 464 480 453 480 L 453 476 C 464 476 473 468 473 460 Z"
       fill="#737678"
       stroke="none"
       pointer-events="none"
       id="path3565" />
    <rect
       x="373"
       y="418"
       width="0"
       height="0"
       fill="none"
       stroke="none"
       pointer-events="none"
       id="rect3567" />
    <path
       d="M 473 460 L 473 464 C 473 464 473 465 473 466 L 473 462 C 473 462 473 461 473 460"
       fill="#737678"
       stroke="none"
       pointer-events="none"
       id="path3569" />
    <path
       d="M 473 462 L 473 466 C 473 466 473 467 472 468 L 472 464 C 473 463 473 463 473 462"
       fill="#737678"
       stroke="none"
       pointer-events="none"
       id="path3571" />
    <path
       d="M 472 464 L 472 468 C 472 468 472 469 471 470 L 471 467 C 472 466 472 465 472 464"
       fill="#737678"
       stroke="none"
       pointer-events="none"
       id="path3573" />
    <path
       d="M 471 467 L 471 470 C 468 475 461 480 453 480 L 453 476 C 461 476 468 472 471 467"
       fill="#737678"
       stroke="none"
       pointer-events="none"
       id="path3575" />
    <path
       d="M 453 476 L 453 480 L 393 480 L 392 475 Z"
       fill="#737678"
       stroke="none"
       pointer-events="none"
       id="path3577" />
    <rect
       x="373"
       y="418"
       width="0"
       height="0"
       fill="none"
       stroke="none"
       pointer-events="none"
       id="rect3579" />
    <path
       d="M 393 476 L 393 480 C 382 480 373 472 373 464 L 373 460 C 373 468 382 476 393 476 Z"
       fill="#737678"
       stroke="none"
       pointer-events="none"
       id="path3581" />
    <rect
       x="373"
       y="418"
       width="0"
       height="0"
       fill="none"
       stroke="none"
       pointer-events="none"
       id="rect3583" />
    <path
       d="M 393 476 L 393 480 C 382 480 373 472 373 464 L 373 460 C 373 468 382 476 393 476"
       fill="#737678"
       stroke="none"
       pointer-events="none"
       id="path3585" />
    <path
       d="M 411 418 C 422 418 431 424 435 432 C 437 431 439 430 442 430 C 449 430 455 435 455 442 C 465 442 473 452 473 459 L 473 460 C 473 468 464 476 453 476 L 393 476 C 382 476 373 468 373 460 L 373 459 C 373 453 378 444 386 442 C 386 442 386 442 386 442 C 386 428 397 418 411 418 Z"
       fill="#c5c6c7"
       stroke="none"
       pointer-events="none"
       id="path3587" />
    <path
       d="M 87 52 L 117 52 L 117 72 L 87 72 Z"
       fill="#ffffff"
       stroke="#000000"
       stroke-miterlimit="10"
       pointer-events="none"
       id="path3589" />
    <path
       d="M 87 52 L 102 62 L 117 52"
       fill="none"
       stroke="#000000"
       stroke-miterlimit="10"
       pointer-events="none"
       id="path3591" />
    <rect
       x="77"
       y="32"
       width="50"
       height="20"
       fill="none"
       stroke="none"
       pointer-events="none"
       id="rect3593" />
    <g
       fill="#000000"
       font-family="Helvetica"
       text-anchor="middle"
       font-size="12px"
       id="g3595">
      <text
         x="102"
         y="46"
         id="text3597">Data</text>
    </g>
    <rect
       x="68"
       y="133"
       width="120"
       height="60"
       fill="#ffffff"
       stroke="#000000"
       pointer-events="none"
       id="rect3599" />
    <path
       d="M 81 133 L 81 193 M 175 133 L 175 193"
       fill="none"
       stroke="#000000"
       stroke-miterlimit="10"
       pointer-events="none"
       id="path3601" />
    <rect
       x="78"
       y="143"
       width="100"
       height="40"
       fill="none"
       stroke="none"
       pointer-events="none"
       id="rect3603" />
    <g
       fill="#000000"
       font-family="Helvetica"
       text-anchor="middle"
       font-size="12px"
       id="g3605">
      <text
         x="128"
         y="160"
         id="text3607">Symmetric </text>
      <text
         x="128"
         y="174"
         id="text3609">cipher</text>
    </g>
    <path
       d="M 102 72 L 118 127"
       fill="none"
       stroke="#000000"
       stroke-miterlimit="10"
       pointer-events="none"
       id="path3611" />
    <path
       d="M 120 132 L 115 126 L 118 127 L 121 124 Z"
       fill="#000000"
       stroke="#000000"
       stroke-miterlimit="10"
       pointer-events="none"
       id="path3613" />
    <path
       d="M 188 67 L 147 128"
       fill="none"
       stroke="#000000"
       stroke-miterlimit="10"
       pointer-events="none"
       id="path3615" />
    <path
       d="M 144 132 L 145 124 L 147 128 L 151 128 Z"
       fill="#000000"
       stroke="#000000"
       stroke-miterlimit="10"
       pointer-events="none"
       id="path3617" />
    <path
       d="M 128 193 L 127 218"
       fill="none"
       stroke="#000000"
       stroke-miterlimit="10"
       pointer-events="none"
       id="path3619" />
    <path
       d="M 127 223 L 124 216 L 127 218 L 131 216 Z"
       fill="#000000"
       stroke="#000000"
       stroke-miterlimit="10"
       pointer-events="none"
       id="path3621" />
    <rect
       x="2"
       y="217"
       width="100"
       height="40"
       fill="none"
       stroke="none"
       pointer-events="none"
       id="rect3623" />
    <g
       fill="#000000"
       font-family="Helvetica"
       text-anchor="end"
       font-size="12px"
       id="g3625">
      <text
         x="100"
         y="234"
         id="text3627">Encrypted </text>
      <text
         x="100"
         y="248"
         id="text3629">data</text>
    </g>
    <rect
       x="152"
       y="8"
       width="201"
       height="88"
       fill="none"
       stroke="none"
       pointer-events="none"
       id="rect3631" />
    <path
       d="M 233 57 L 233 60 L 231 63 L 231 60 Z"
       fill="#4d622c"
       stroke="none"
       pointer-events="none"
       id="path3633" />
    <path
       d="M 232 60 L 231 63 L 208 63 L 207 60 Z"
       fill="#4d622c"
       stroke="none"
       pointer-events="none"
       id="path3635" />
    <rect
       x="152"
       y="8"
       width="0"
       height="0"
       fill="none"
       stroke="none"
       pointer-events="none"
       id="rect3637" />
    <path
       d="M 208 61 L 208 63 C 208 63 208 64 207 64 L 207 62 C 208 61 208 61 208 61 Z"
       fill="#4d622c"
       stroke="none"
       pointer-events="none"
       id="path3639" />
    <rect
       x="152"
       y="8"
       width="0"
       height="0"
       fill="none"
       stroke="none"
       pointer-events="none"
       id="rect3641" />
    <path
       d="M 208 61 L 208 63 C 208 63 207 64 207 65 L 207 62 C 207 61 208 61 208 61"
       fill="#4d622c"
       stroke="none"
       pointer-events="none"
       id="path3643" />
    <path
       d="M 208 61 L 208 63 C 208 63 208 63 208 63 L 208 61 C 208 61 208 61 208 61"
       fill="#4d622c"
       stroke="none"
       pointer-events="none"
       id="path3645" />
    <path
       d="M 207 62"
       fill="#4d622c"
       stroke="none"
       pointer-events="none"
       id="path3647" />
    <rect
       x="152"
       y="8"
       width="0"
       height="0"
       fill="none"
       stroke="none"
       pointer-events="none"
       id="rect3649" />
    <path
       d="M 207 61 L 207 64 C 207 65 206 66 206 66 L 206 64 C 206 63 207 62 207 61 Z"
       fill="#4d622c"
       stroke="none"
       pointer-events="none"
       id="path3651" />
    <rect
       x="152"
       y="8"
       width="0"
       height="0"
       fill="none"
       stroke="none"
       pointer-events="none"
       id="rect3653" />
    <path
       d="M 208 61 L 207 64 C 207 65 206 66 206 66 L 206 64 C 206 63 207 62 208 61"
       fill="#4d622c"
       stroke="none"
       pointer-events="none"
       id="path3655" />
    <rect
       x="152"
       y="8"
       width="0"
       height="0"
       fill="none"
       stroke="none"
       pointer-events="none"
       id="rect3657" />
    <path
       d="M 206 63 L 206 66 C 205 67 205 67 204 68 L 204 65 C 205 65 206 64 206 63 Z"
       fill="#4d622c"
       stroke="none"
       pointer-events="none"
       id="path3659" />
    <rect
       x="152"
       y="8"
       width="0"
       height="0"
       fill="none"
       stroke="none"
       pointer-events="none"
       id="rect3661" />
    <path
       d="M 206 63 L 206 66 C 206 67 205 67 204 68 L 204 65 C 204 64 206 64 206 63"
       fill="#4d622c"
       stroke="none"
       pointer-events="none"
       id="path3663" />
    <rect
       x="152"
       y="8"
       width="0"
       height="0"
       fill="none"
       stroke="none"
       pointer-events="none"
       id="rect3665" />
    <path
       d="M 184 59 L 184 57 C 184 59 185 61 187 63 C 187 64 188 64 188 64 C 190 66 193 67 197 67 C 199 67 202 67 204 65 L 204 68 C 202 69 199 70 197 70 C 193 70 190 69 188 67 C 188 67 187 66 187 66 C 185 64 184 62 184 59 Z"
       fill="#4d622c"
       stroke="none"
       pointer-events="none"
       id="path3667" />
    <rect
       x="152"
       y="8"
       width="0"
       height="0"
       fill="none"
       stroke="none"
       pointer-events="none"
       id="rect3669" />
    <path
       d="M 205 64 C 203 66 199 67 197 67 C 193 67 190 66 188 64 C 188 64 187 64 187 63 C 185 61 184 59 184 57 L 184 59 C 184 62 185 64 187 66 C 187 66 188 67 188 67 C 190 69 193 70 197 70 C 199 70 202 69 204 68 L 205 64 Z"
       fill="#4d622c"
       stroke="none"
       pointer-events="none"
       id="path3671" />
    <path
       d="M 229 53 L 233 57 L 231 60 L 208 61 C 208 61 208 61 207 62 C 207 62 206 63 206 64 C 205 64 205 65 204 65 C 202 67 199 67 197 67 C 193 67 190 66 188 64 C 188 64 187 64 187 63 C 183 59 183 52 189 48 C 191 47 194 46 197 46 C 199 46 202 47 204 48 C 206 49 207 51 207 51 L 208 51 L 214 51 L 216 54 L 221 54 L 223 55 L 224 56 L 229 53 Z M 191 59 C 193 59 194 58 194 56 C 194 55 193 54 191 54 C 191 54 191 54 191 54 C 189 54 188 55 188 57 C 188 58 189 59 191 59 C 191 59 191 59 191 59"
       fill="#769b3f"
       stroke="none"
       pointer-events="none"
       id="path3673" />
    <rect
       x="152"
       y="10"
       width="100"
       height="40"
       fill="none"
       stroke="none"
       pointer-events="none"
       id="rect3675" />
    <g
       fill="#000000"
       font-family="Helvetica"
       text-anchor="middle"
       font-size="12px"
       id="g3677">
      <text
         x="202"
         y="13"
         id="text3679">Generated </text>
      <text
         x="202"
         y="27"
         id="text3681">random </text>
      <text
         x="202"
         y="41"
         id="text3683">symmetric key</text>
    </g>
    <path
       d="M 291 49 L 288 49 L 285 49 L 288 50 Z"
       fill="#3c4929"
       stroke="none"
       transform="rotate(90,303,60)"
       pointer-events="none"
       id="path3685" />
    <path
       d="M 287 54 L 303 55 L 319 54 L 303 53 Z"
       fill="#3c4929"
       stroke="none"
       transform="rotate(90,303,60)"
       pointer-events="none"
       id="path3687" />
    <path
       d="M 314 49 L 317 50 L 322 49 L 318 49 Z"
       fill="#3c4929"
       stroke="none"
       transform="rotate(90,303,60)"
       pointer-events="none"
       id="path3689" />
    <path
       d="M 298 78 L 307 76 L 315 78 L 306 81 Z"
       fill="#b7ca9d"
       stroke="none"
       transform="rotate(90,303,60)"
       pointer-events="none"
       id="path3691" />
    <path
       d="M 299 48 L 294 48 L 294 35 L 299 36 Z"
       fill="#759c3e"
       stroke="none"
       transform="rotate(90,303,60)"
       pointer-events="none"
       id="path3693" />
    <path
       d="M 287 38 L 287 32 L 303 24 L 303 31 L 294 35 L 294 47 L 303 46 L 303 96 L 298 94 L 298 87 L 294 85 L 294 54 L 287 54 L 287 49 L 285 49 L 285 39 Z"
       fill="#4b612c"
       stroke="none"
       transform="rotate(90,303,60)"
       pointer-events="none"
       id="path3695" />
    <path
       d="M 311 28 L 314 30 L 319 32 L 319 38 L 322 39 L 322 49 L 319 49 L 319 54 L 315 54 L 312 54 L 312 60 L 312 60 L 312 60 L 319 60 L 319 66 L 315 66 L 315 72 L 308 73 L 308 80 L 315 78 L 315 84 L 308 87 L 308 94 L 303 96 L 303 74 L 303 67 L 303 60 L 303 60 L 303 53 L 303 46 L 307 46 L 307 36 L 303 35 L 303 31 L 303 24 Z"
       fill="#759c3e"
       stroke="none"
       transform="rotate(90,303,60)"
       pointer-events="none"
       id="path3697" />
    <path
       d="M 308 33 L 303 31 L 294 35 L 299 36 Z"
       fill="#3c4929"
       stroke="none"
       transform="rotate(90,303,60)"
       pointer-events="none"
       id="path3699" />
    <path
       d="M 307 36 L 312 35 L 312 47 L 307 46 Z"
       fill="#4b612c"
       stroke="none"
       transform="rotate(90,303,60)"
       pointer-events="none"
       id="path3701" />
    <path
       d="M 294 35 L 303 31 L 305 32 L 308 33 L 312 35 L 307 36 L 303 35 L 299 36 Z"
       fill="#3c4929"
       stroke="none"
       transform="rotate(90,303,60)"
       pointer-events="none"
       id="path3703" />
    <rect
       x="261"
       y="8"
       width="100"
       height="40"
       fill="none"
       stroke="none"
       pointer-events="none"
       id="rect3705" />
    <g
       fill="#000000"
       font-family="Helvetica"
       text-anchor="middle"
       font-size="12px"
       id="g3707">
      <text
         x="311"
         y="25"
         id="text3709">Public-key</text>
      <text
         x="311"
         y="39"
         id="text3711">of recipient</text>
    </g>
    <rect
       x="211"
       y="133"
       width="120"
       height="60"
       fill="#ffffff"
       stroke="#000000"
       pointer-events="none"
       id="rect3713" />
    <path
       d="M 224 133 L 224 193 M 318 133 L 318 193"
       fill="none"
       stroke="#000000"
       stroke-miterlimit="10"
       pointer-events="none"
       id="path3715" />
    <path
       d="M 208 70 L 238 127"
       fill="none"
       stroke="#000000"
       stroke-miterlimit="10"
       pointer-events="none"
       id="path3717" />
    <path
       d="M 240 132 L 234 127 L 238 127 L 240 124 Z"
       fill="#000000"
       stroke="#000000"
       stroke-miterlimit="10"
       pointer-events="none"
       id="path3719" />
    <path
       d="M 303 76 L 301 127"
       fill="none"
       stroke="#000000"
       stroke-miterlimit="10"
       pointer-events="none"
       id="path3721" />
    <path
       d="M 301 132 L 297 125 L 301 127 L 304 125 Z"
       fill="#000000"
       stroke="#000000"
       stroke-miterlimit="10"
       pointer-events="none"
       id="path3723" />
    <rect
       x="216"
       y="193"
       width="87"
       height="65"
       fill="none"
       stroke="none"
       pointer-events="none"
       id="rect3725" />
    <rect
       x="241"
       y="224"
       width="62"
       height="34"
       fill="#ffffff"
       stroke="#000000"
       pointer-events="none"
       id="rect3727" />
    <path
       d="M 297 242 L 297 245 L 295 248 L 295 245 Z"
       fill="#4d622c"
       stroke="none"
       pointer-events="none"
       id="path3729" />
    <path
       d="M 296 245 L 295 248 L 272 248 L 271 245 Z"
       fill="#4d622c"
       stroke="none"
       pointer-events="none"
       id="path3731" />
    <rect
       x="216"
       y="193"
       width="0"
       height="0"
       fill="none"
       stroke="none"
       pointer-events="none"
       id="rect3733" />
    <path
       d="M 272 246 L 272 248 C 272 248 272 249 271 249 L 271 247 C 272 246 272 246 272 246 Z"
       fill="#4d622c"
       stroke="none"
       pointer-events="none"
       id="path3735" />
    <rect
       x="216"
       y="193"
       width="0"
       height="0"
       fill="none"
       stroke="none"
       pointer-events="none"
       id="rect3737" />
    <path
       d="M 272 246 L 272 248 C 272 248 271 249 271 250 L 271 247 C 271 246 272 246 272 246"
       fill="#4d622c"
       stroke="none"
       pointer-events="none"
       id="path3739" />
    <path
       d="M 272 246 L 272 248 C 272 248 272 248 272 248 L 272 246 C 272 246 272 246 272 246"
       fill="#4d622c"
       stroke="none"
       pointer-events="none"
       id="path3741" />
    <path
       d="M 271 247"
       fill="#4d622c"
       stroke="none"
       pointer-events="none"
       id="path3743" />
    <rect
       x="216"
       y="193"
       width="0"
       height="0"
       fill="none"
       stroke="none"
       pointer-events="none"
       id="rect3745" />
    <path
       d="M 271 246 L 271 249 C 271 250 270 251 270 251 L 270 249 C 270 248 271 247 271 246 Z"
       fill="#4d622c"
       stroke="none"
       pointer-events="none"
       id="path3747" />
    <rect
       x="216"
       y="193"
       width="0"
       height="0"
       fill="none"
       stroke="none"
       pointer-events="none"
       id="rect3749" />
    <path
       d="M 272 246 L 271 249 C 271 250 270 251 270 251 L 270 249 C 270 248 271 247 272 246"
       fill="#4d622c"
       stroke="none"
       pointer-events="none"
       id="path3751" />
    <rect
       x="216"
       y="193"
       width="0"
       height="0"
       fill="none"
       stroke="none"
       pointer-events="none"
       id="rect3753" />
    <path
       d="M 270 248 L 270 251 C 269 252 269 252 268 253 L 268 250 C 269 250 270 249 270 248 Z"
       fill="#4d622c"
       stroke="none"
       pointer-events="none"
       id="path3755" />
    <rect
       x="216"
       y="193"
       width="0"
       height="0"
       fill="none"
       stroke="none"
       pointer-events="none"
       id="rect3757" />
    <path
       d="M 270 248 L 270 251 C 270 252 269 252 268 253 L 268 250 C 268 249 270 249 270 248"
       fill="#4d622c"
       stroke="none"
       pointer-events="none"
       id="path3759" />
    <rect
       x="216"
       y="193"
       width="0"
       height="0"
       fill="none"
       stroke="none"
       pointer-events="none"
       id="rect3761" />
    <path
       d="M 248 244 L 248 242 C 248 244 249 246 251 248 C 251 249 252 249 252 249 C 254 251 257 252 261 252 C 263 252 266 252 268 250 L 268 253 C 266 254 263 255 261 255 C 257 255 254 254 252 252 C 252 252 251 251 251 251 C 249 249 248 247 248 244 Z"
       fill="#4d622c"
       stroke="none"
       pointer-events="none"
       id="path3763" />
    <rect
       x="216"
       y="193"
       width="0"
       height="0"
       fill="none"
       stroke="none"
       pointer-events="none"
       id="rect3765" />
    <path
       d="M 269 249 C 267 251 263 252 261 252 C 257 252 254 251 252 249 C 252 249 251 249 251 248 C 249 246 248 244 248 242 L 248 244 C 248 247 249 249 251 251 C 251 251 252 252 252 252 C 254 254 257 255 261 255 C 263 255 266 254 268 253 L 269 249 Z"
       fill="#4d622c"
       stroke="none"
       pointer-events="none"
       id="path3767" />
    <path
       d="M 293 238 L 297 242 L 295 245 L 272 246 C 272 246 272 246 271 247 C 271 247 270 248 270 249 C 269 249 269 250 268 250 C 266 252 263 252 261 252 C 257 252 254 251 252 249 C 252 249 251 249 251 248 C 247 244 247 237 253 233 C 255 232 258 231 261 231 C 263 231 266 232 268 233 C 270 234 271 236 271 236 L 272 236 L 278 236 L 280 239 L 285 239 L 287 240 L 288 241 L 293 238 Z M 255 244 C 257 244 258 243 258 241 C 258 240 257 239 255 239 C 255 239 255 239 255 239 C 253 239 252 240 252 242 C 252 243 253 244 255 244 C 255 244 255 244 255 244"
       fill="#769b3f"
       stroke="none"
       pointer-events="none"
       id="path3769" />
    <path
       d="M 271 193 L 272 218"
       fill="none"
       stroke="#000000"
       stroke-miterlimit="10"
       pointer-events="none"
       id="path3771" />
    <path
       d="M 272 223 L 268 216 L 272 218 L 275 216 Z"
       fill="#000000"
       stroke="#000000"
       stroke-miterlimit="10"
       pointer-events="none"
       id="path3773" />
    <rect
       x="303"
       y="218"
       width="100"
       height="40"
       fill="none"
       stroke="none"
       pointer-events="none"
       id="rect3775" />
    <g
       fill="#000000"
       font-family="Helvetica"
       font-size="12px"
       id="g3777">
      <text
         x="305"
         y="235"
         id="text3779">Encrypted</text>
      <text
         x="305"
         y="249"
         id="text3781">symmetric key</text>
    </g>
    <rect
       x="102"
       y="224"
       width="50"
       height="40"
       fill="none"
       stroke="none"
       pointer-events="none"
       id="rect3783" />
    <rect
       x="102"
       y="224"
       width="50"
       height="40"
       fill="none"
       stroke="none"
       pointer-events="none"
       id="rect3785" />
    <rect
       x="102"
       y="224"
       width="50"
       height="40"
       fill="#ffffff"
       stroke="#000000"
       pointer-events="none"
       id="rect3787" />
    <path
       d="M 112 234 L 142 234 L 142 254 L 112 254 Z"
       fill="#ffffff"
       stroke="#000000"
       stroke-miterlimit="10"
       pointer-events="none"
       id="path3789" />
    <path
       d="M 112 234 L 127 244 L 142 234"
       fill="none"
       stroke="#000000"
       stroke-miterlimit="10"
       pointer-events="none"
       id="path3791" />
    <path
       d="M 127 264 L 127 281 Q 127 291 137 291 L 153 291 Q 163 291 163 301 L 163 311"
       fill="none"
       stroke="#000000"
       stroke-miterlimit="10"
       pointer-events="none"
       id="path3793" />
    <path
       d="M 163 316 L 160 309 L 163 311 L 167 309 Z"
       fill="#000000"
       stroke="#000000"
       stroke-miterlimit="10"
       pointer-events="none"
       id="path3795" />
    <path
       d="M 272 258 L 272 278 Q 272 288 262 288 L 233 288 Q 223 288 223 298 L 223 311"
       fill="none"
       stroke="#000000"
       stroke-miterlimit="10"
       pointer-events="none"
       id="path3797" />
    <path
       d="M 223 316 L 220 309 L 223 311 L 227 309 Z"
       fill="#000000"
       stroke="#000000"
       stroke-miterlimit="10"
       pointer-events="none"
       id="path3799" />
    <path
       d="M 652 229 C 652 229 652 231 652 231 C 650 231 648 231 648 234 C 648 236 650 238 652 238 C 652 238 652 238 652 238 C 655 238 657 236 657 234 C 657 231 655 229 652 229 Z"
       fill="#3c492a"
       stroke="none"
       transform="rotate(180,676,235)"
       pointer-events="none"
       id="path3801" />
    <path
       d="M 635 216 L 635 258 L 716 258 L 716 216 L 635 216 Z M 705 242 L 675 243 C 675 243 674 244 674 245 C 673 246 673 246 672 247 C 671 248 671 249 670 249 C 667 252 663 253 659 253 C 655 253 651 252 648 249 C 648 248 647 248 647 247 C 641 240 642 230 649 224 C 652 222 656 220 659 220 C 663 220 667 222 670 224 C 672 226 673 228 673 228 L 675 228 L 683 228 L 685 233 L 692 232 L 694 235 L 696 235 L 702 232 L 708 237 L 705 242 Z"
       fill="#3c492a"
       stroke="none"
       transform="rotate(180,676,235)"
       pointer-events="none"
       id="path3803" />
    <rect
       x="648"
       y="233"
       width="9"
       height="2"
       fill="#3c492a"
       stroke="none"
       transform="rotate(180,676,235)"
       pointer-events="none"
       id="rect3805" />
    <path
       d="M 652 228 C 652 228 652 228 652 228 C 650 228 648 230 648 232 C 648 235 650 237 652 237 C 652 237 652 237 652 237 C 655 237 657 235 657 232 C 657 230 655 228 652 228 Z"
       fill="#769b3f"
       stroke="none"
       transform="rotate(180,676,235)"
       pointer-events="none"
       id="path3807" />
    <path
       d="M 635 211 L 635 253 L 716 253 L 716 211 L 635 211 Z M 705 238 L 675 238 C 675 238 674 239 674 240 C 673 241 673 242 672 243 C 671 243 671 244 670 245 C 667 247 663 249 659 249 C 655 249 651 247 648 244 C 648 244 647 243 647 243 C 641 236 642 225 649 220 C 652 217 656 216 659 216 C 663 216 667 217 670 220 C 672 221 673 224 673 224 L 675 224 L 683 224 L 685 228 L 692 228 L 694 230 L 696 231 L 702 227 L 708 233 L 705 238 Z"
       fill="#769b3f"
       stroke="none"
       transform="rotate(180,676,235)"
       pointer-events="none"
       id="path3809" />
    <path
       d="M 141 435 L 141 412 L 244 412 L 244 435 Z"
       fill="#ffffff"
       stroke="#000000"
       stroke-miterlimit="10"
       pointer-events="none"
       id="path3811" />
    <path
       d="M 141 435 L 141 484 L 244 484 L 244 435"
       fill="none"
       stroke="#000000"
       stroke-miterlimit="10"
       pointer-events="none"
       id="path3813" />
    <rect
       x="144"
       y="403"
       width="100"
       height="40"
       fill="none"
       stroke="none"
       pointer-events="none"
       id="rect3815" />
    <g
       fill="#000000"
       font-family="Helvetica"
       font-weight="bold"
       text-anchor="middle"
       font-size="12px"
       id="g3817">
      <text
         x="194"
         y="427"
         id="text3819">PGP Message</text>
    </g>
    <path
       d="M 193 378 L 193 405"
       fill="none"
       stroke="#000000"
       stroke-miterlimit="10"
       pointer-events="none"
       id="path3821" />
    <path
       d="M 193 411 L 189 404 L 193 405 L 196 404 Z"
       fill="#000000"
       stroke="#000000"
       stroke-miterlimit="10"
       pointer-events="none"
       id="path3823" />
    <path
       d="M 244 448 L 371 449"
       fill="none"
       stroke="#000000"
       stroke-miterlimit="10"
       pointer-events="none"
       id="path3825" />
    <path
       d="M 376 449 L 369 452 L 371 449 L 369 445 Z"
       fill="#000000"
       stroke="#000000"
       stroke-miterlimit="10"
       pointer-events="none"
       id="path3827" />
    <rect
       x="370"
       y="434"
       width="100"
       height="40"
       fill="none"
       stroke="none"
       pointer-events="none"
       id="rect3829" />
    <g
       fill="#000000"
       font-family="Helvetica"
       text-anchor="middle"
       font-size="12px"
       id="g3831">
      <text
         x="420"
         y="451"
         id="text3833">Unsecured</text>
      <text
         x="420"
         y="465"
         id="text3835">connection</text>
    </g>
    <path
       d="M 565 436 L 565 413 L 668 413 L 668 436 Z"
       fill="#ffffff"
       stroke="#000000"
       stroke-miterlimit="10"
       pointer-events="none"
       id="path3837" />
    <path
       d="M 565 436 L 565 485 L 668 485 L 668 436"
       fill="none"
       stroke="#000000"
       stroke-miterlimit="10"
       pointer-events="none"
       id="path3839" />
    <rect
       x="566"
       y="405"
       width="100"
       height="40"
       fill="none"
       stroke="none"
       pointer-events="none"
       id="rect3841" />
    <g
       fill="#000000"
       font-family="Helvetica"
       font-weight="bold"
       text-anchor="middle"
       font-size="12px"
       id="g3843">
      <text
         x="616"
         y="429"
         id="text3845">PGP Message</text>
    </g>
    <path
       d="M 470 444 L 558 448"
       fill="none"
       stroke="#000000"
       stroke-miterlimit="10"
       pointer-events="none"
       id="path3847" />
    <path
       d="M 563 449 L 556 452 L 558 448 L 557 445 Z"
       fill="#000000"
       stroke="#000000"
       stroke-miterlimit="10"
       pointer-events="none"
       id="path3849" />
    <rect
       x="133"
       y="318"
       width="120"
       height="60"
       fill="none"
       stroke="none"
       pointer-events="none"
       id="rect3851" />
    <rect
       x="133"
       y="318"
       width="120"
       height="60"
       fill="#ffffff"
       stroke="#000000"
       pointer-events="none"
       id="rect3853" />
    <path
       d="M 146 318 L 146 378 M 240 318 L 240 378"
       fill="none"
       stroke="#000000"
       stroke-miterlimit="10"
       pointer-events="none"
       id="path3855" />
    <rect
       x="143"
       y="328"
       width="100"
       height="40"
       fill="none"
       stroke="none"
       pointer-events="none"
       id="rect3857" />
    <g
       fill="#000000"
       font-family="Helvetica"
       text-anchor="middle"
       font-size="12px"
       id="g3859">
      <text
         x="193"
         y="345"
         id="text3861">CRC24 calculate</text>
      <text
         x="193"
         y="359"
         id="text3863">Base64 encode</text>
    </g>
    <rect
       x="556"
       y="318"
       width="120"
       height="60"
       fill="none"
       stroke="none"
       pointer-events="none"
       id="rect3865" />
    <rect
       x="556"
       y="318"
       width="120"
       height="60"
       fill="#ffffff"
       stroke="#000000"
       pointer-events="none"
       id="rect3867" />
    <path
       d="M 569 318 L 569 378 M 663 318 L 663 378"
       fill="none"
       stroke="#000000"
       stroke-miterlimit="10"
       pointer-events="none"
       id="path3869" />
    <rect
       x="566"
       y="328"
       width="100"
       height="40"
       fill="none"
       stroke="none"
       pointer-events="none"
       id="rect3871" />
    <g
       fill="#000000"
       font-family="Helvetica"
       text-anchor="middle"
       font-size="12px"
       id="g3873">
      <text
         x="616"
         y="345"
         id="text3875">CRC24 check</text>
      <text
         x="616"
         y="359"
         id="text3877">Base64 decode</text>
    </g>
    <path
       d="M 616 413 L 616 384"
       fill="none"
       stroke="#000000"
       stroke-miterlimit="10"
       pointer-events="none"
       id="path3879" />
    <path
       d="M 616 379 L 619 386 L 616 384 L 612 386 Z"
       fill="#000000"
       stroke="#000000"
       stroke-miterlimit="10"
       pointer-events="none"
       id="path3881" />
    <rect
       x="527"
       y="215"
       width="100"
       height="40"
       fill="none"
       stroke="none"
       pointer-events="none"
       id="rect3883" />
    <g
       fill="#000000"
       font-family="Helvetica"
       font-size="12px"
       id="g3885">
      <text
         x="529"
         y="232"
         id="text3887">Encrypted</text>
      <text
         x="529"
         y="246"
         id="text3889">symmetric key</text>
    </g>
    <rect
       x="440"
       y="190"
       width="87"
       height="65"
       fill="none"
       stroke="none"
       pointer-events="none"
       id="rect3891" />
    <rect
       x="465"
       y="221"
       width="62"
       height="34"
       fill="#ffffff"
       stroke="#000000"
       pointer-events="none"
       id="rect3893" />
    <path
       d="M 521 239 L 521 242 L 519 245 L 519 242 Z"
       fill="#4d622c"
       stroke="none"
       pointer-events="none"
       id="path3895" />
    <path
       d="M 520 242 L 519 245 L 496 245 L 495 242 Z"
       fill="#4d622c"
       stroke="none"
       pointer-events="none"
       id="path3897" />
    <rect
       x="440"
       y="190"
       width="0"
       height="0"
       fill="none"
       stroke="none"
       pointer-events="none"
       id="rect3899" />
    <path
       d="M 496 243 L 496 245 C 496 245 496 246 495 246 L 495 244 C 496 243 496 243 496 243 Z"
       fill="#4d622c"
       stroke="none"
       pointer-events="none"
       id="path3901" />
    <rect
       x="440"
       y="190"
       width="0"
       height="0"
       fill="none"
       stroke="none"
       pointer-events="none"
       id="rect3903" />
    <path
       d="M 496 243 L 496 245 C 496 245 495 246 495 247 L 495 244 C 495 243 496 243 496 243"
       fill="#4d622c"
       stroke="none"
       pointer-events="none"
       id="path3905" />
    <path
       d="M 496 243 L 496 245 C 496 245 496 245 496 245 L 496 243 C 496 243 496 243 496 243"
       fill="#4d622c"
       stroke="none"
       pointer-events="none"
       id="path3907" />
    <path
       d="M 495 244"
       fill="#4d622c"
       stroke="none"
       pointer-events="none"
       id="path3909" />
    <rect
       x="440"
       y="190"
       width="0"
       height="0"
       fill="none"
       stroke="none"
       pointer-events="none"
       id="rect3911" />
    <path
       d="M 495 243 L 495 246 C 495 247 494 248 494 248 L 494 246 C 494 245 495 244 495 243 Z"
       fill="#4d622c"
       stroke="none"
       pointer-events="none"
       id="path3913" />
    <rect
       x="440"
       y="190"
       width="0"
       height="0"
       fill="none"
       stroke="none"
       pointer-events="none"
       id="rect3915" />
    <path
       d="M 496 243 L 495 246 C 495 247 494 248 494 248 L 494 246 C 494 245 495 244 496 243"
       fill="#4d622c"
       stroke="none"
       pointer-events="none"
       id="path3917" />
    <rect
       x="440"
       y="190"
       width="0"
       height="0"
       fill="none"
       stroke="none"
       pointer-events="none"
       id="rect3919" />
    <path
       d="M 494 245 L 494 248 C 493 249 493 249 492 250 L 492 247 C 493 247 494 246 494 245 Z"
       fill="#4d622c"
       stroke="none"
       pointer-events="none"
       id="path3921" />
    <rect
       x="440"
       y="190"
       width="0"
       height="0"
       fill="none"
       stroke="none"
       pointer-events="none"
       id="rect3923" />
    <path
       d="M 494 245 L 494 248 C 494 249 493 249 492 250 L 492 247 C 492 246 494 246 494 245"
       fill="#4d622c"
       stroke="none"
       pointer-events="none"
       id="path3925" />
    <rect
       x="440"
       y="190"
       width="0"
       height="0"
       fill="none"
       stroke="none"
       pointer-events="none"
       id="rect3927" />
    <path
       d="M 472 241 L 472 239 C 472 241 473 243 475 245 C 475 246 476 246 476 246 C 478 248 481 249 485 249 C 487 249 490 249 492 247 L 492 250 C 490 251 487 252 485 252 C 481 252 478 251 476 249 C 476 249 475 248 475 248 C 473 246 472 244 472 241 Z"
       fill="#4d622c"
       stroke="none"
       pointer-events="none"
       id="path3929" />
    <rect
       x="440"
       y="190"
       width="0"
       height="0"
       fill="none"
       stroke="none"
       pointer-events="none"
       id="rect3931" />
    <path
       d="M 493 246 C 491 248 487 249 485 249 C 481 249 478 248 476 246 C 476 246 475 246 475 245 C 473 243 472 241 472 239 L 472 241 C 472 244 473 246 475 248 C 475 248 476 249 476 249 C 478 251 481 252 485 252 C 487 252 490 251 492 250 L 493 246 Z"
       fill="#4d622c"
       stroke="none"
       pointer-events="none"
       id="path3933" />
    <path
       d="M 517 235 L 521 239 L 519 242 L 496 243 C 496 243 496 243 495 244 C 495 244 494 245 494 246 C 493 246 493 247 492 247 C 490 249 487 249 485 249 C 481 249 478 248 476 246 C 476 246 475 246 475 245 C 471 241 471 234 477 230 C 479 229 482 228 485 228 C 487 228 490 229 492 230 C 494 231 495 233 495 233 L 496 233 L 502 233 L 504 236 L 509 236 L 511 237 L 512 238 L 517 235 Z M 479 241 C 481 241 482 240 482 238 C 482 237 481 236 479 236 C 479 236 479 236 479 236 C 477 236 476 237 476 239 C 476 240 477 241 479 241 C 479 241 479 241 479 241"
       fill="#769b3f"
       stroke="none"
       pointer-events="none"
       id="path3935" />
    <rect
       x="700"
       y="208"
       width="100"
       height="40"
       fill="none"
       stroke="none"
       pointer-events="none"
       id="rect3937" />
    <g
       fill="#000000"
       font-family="Helvetica"
       text-anchor="middle"
       font-size="12px"
       id="g3939">
      <text
         x="750"
         y="225"
         id="text3941">Private-key</text>
      <text
         x="750"
         y="239"
         id="text3943">of recipient</text>
    </g>
    <rect
       x="529"
       y="133"
       width="120"
       height="60"
       fill="#ffffff"
       stroke="#000000"
       pointer-events="none"
       id="rect3945" />
    <path
       d="M 542 133 L 542 193 M 636 133 L 636 193"
       fill="none"
       stroke="#000000"
       stroke-miterlimit="10"
       pointer-events="none"
       id="path3947" />
    <path
       d="M 586 318 L 586 296 Q 586 286 576 286 L 506 286 Q 496 286 496 276 L 496 261"
       fill="none"
       stroke="#000000"
       stroke-miterlimit="10"
       pointer-events="none"
       id="path3949" />
    <path
       d="M 496 256 L 500 263 L 496 261 L 493 263 Z"
       fill="#000000"
       stroke="#000000"
       stroke-miterlimit="10"
       pointer-events="none"
       id="path3951" />
    <rect
       x="767"
       y="143"
       width="50"
       height="40"
       fill="none"
       stroke="none"
       pointer-events="none"
       id="rect3953" />
    <rect
       x="767"
       y="143"
       width="50"
       height="40"
       fill="none"
       stroke="none"
       pointer-events="none"
       id="rect3955" />
    <rect
       x="767"
       y="143"
       width="50"
       height="40"
       fill="#ffffff"
       stroke="#000000"
       pointer-events="none"
       id="rect3957" />
    <path
       d="M 777 153 L 807 153 L 807 173 L 777 173 Z"
       fill="#ffffff"
       stroke="#000000"
       stroke-miterlimit="10"
       pointer-events="none"
       id="path3959" />
    <path
       d="M 777 153 L 792 163 L 807 153"
       fill="none"
       stroke="#000000"
       stroke-miterlimit="10"
       pointer-events="none"
       id="path3961" />
    <rect
       x="667"
       y="136"
       width="100"
       height="40"
       fill="none"
       stroke="none"
       pointer-events="none"
       id="rect3963" />
    <g
       fill="#000000"
       font-family="Helvetica"
       text-anchor="end"
       font-size="12px"
       id="g3965">
      <text
         x="765"
         y="153"
         id="text3967">Encrypted </text>
      <text
         x="765"
         y="167"
         id="text3969">data</text>
    </g>
    <path
       d="M 646 318 L 646 302 Q 646 292 656 292 L 782 292 Q 792 292 792 282 L 792 189"
       fill="none"
       stroke="#000000"
       stroke-miterlimit="10"
       pointer-events="none"
       id="path3971" />
    <path
       d="M 792 184 L 796 191 L 792 189 L 789 191 Z"
       fill="#000000"
       stroke="#000000"
       stroke-miterlimit="10"
       pointer-events="none"
       id="path3973" />
    <path
       d="M 496 221 L 553 196"
       fill="none"
       stroke="#000000"
       stroke-miterlimit="10"
       pointer-events="none"
       id="path3975" />
    <path
       d="M 557 193 L 553 200 L 553 196 L 550 193 Z"
       fill="#000000"
       stroke="#000000"
       stroke-miterlimit="10"
       pointer-events="none"
       id="path3977" />
    <path
       d="M 676 211 L 625 195"
       fill="none"
       stroke="#000000"
       stroke-miterlimit="10"
       pointer-events="none"
       id="path3979" />
    <path
       d="M 620 193 L 627 192 L 625 195 L 625 199 Z"
       fill="#000000"
       stroke="#000000"
       stroke-miterlimit="10"
       pointer-events="none"
       id="path3981" />
    <rect
       x="640"
       y="12"
       width="120"
       height="60"
       fill="#ffffff"
       stroke="#000000"
       pointer-events="none"
       id="rect3983" />
    <path
       d="M 653 12 L 653 72 M 747 12 L 747 72"
       fill="none"
       stroke="#000000"
       stroke-miterlimit="10"
       pointer-events="none"
       id="path3985" />
    <rect
       x="650"
       y="22"
       width="100"
       height="40"
       fill="none"
       stroke="none"
       pointer-events="none"
       id="rect3987" />
    <g
       fill="#000000"
       font-family="Helvetica"
       text-anchor="middle"
       font-size="12px"
       id="g3989">
      <text
         x="700"
         y="39"
         id="text3991">Symmetric </text>
      <text
         x="700"
         y="53"
         id="text3993">cipher</text>
    </g>
    <path
       d="M 792 143 L 734 77"
       fill="none"
       stroke="#000000"
       stroke-miterlimit="10"
       pointer-events="none"
       id="path3995" />
    <path
       d="M 731 73 L 738 76 L 734 77 L 733 80 Z"
       fill="#000000"
       stroke="#000000"
       stroke-miterlimit="10"
       pointer-events="none"
       id="path3997" />
    <path
       d="M 625 99 L 625 102 L 622 105 L 622 102 Z"
       fill="#4d622c"
       stroke="none"
       pointer-events="none"
       id="path3999" />
    <path
       d="M 623 102 L 622 105 L 599 105 L 599 102 Z"
       fill="#4d622c"
       stroke="none"
       pointer-events="none"
       id="path4001" />
    <rect
       x="544"
       y="50"
       width="0"
       height="0"
       fill="none"
       stroke="none"
       pointer-events="none"
       id="rect4003" />
    <path
       d="M 599 103 L 599 105 C 599 105 599 106 599 106 L 599 104 C 599 103 599 103 599 103 Z"
       fill="#4d622c"
       stroke="none"
       pointer-events="none"
       id="path4005" />
    <rect
       x="544"
       y="50"
       width="0"
       height="0"
       fill="none"
       stroke="none"
       pointer-events="none"
       id="rect4007" />
    <path
       d="M 599 103 L 599 105 C 599 105 599 106 598 107 L 598 104 C 598 103 599 103 599 103"
       fill="#4d622c"
       stroke="none"
       pointer-events="none"
       id="path4009" />
    <path
       d="M 599 103 L 599 105 C 599 105 599 105 599 105 L 599 103 C 599 103 599 103 599 103"
       fill="#4d622c"
       stroke="none"
       pointer-events="none"
       id="path4011" />
    <path
       d="M 599 104"
       fill="#4d622c"
       stroke="none"
       pointer-events="none"
       id="path4013" />
    <rect
       x="544"
       y="50"
       width="0"
       height="0"
       fill="none"
       stroke="none"
       pointer-events="none"
       id="rect4015" />
    <path
       d="M 599 103 L 599 106 C 598 107 598 108 597 108 L 597 106 C 598 105 599 104 599 103 Z"
       fill="#4d622c"
       stroke="none"
       pointer-events="none"
       id="path4017" />
    <rect
       x="544"
       y="50"
       width="0"
       height="0"
       fill="none"
       stroke="none"
       pointer-events="none"
       id="rect4019" />
    <path
       d="M 599 103 L 599 106 C 598 107 598 108 597 108 L 597 106 C 598 105 599 104 599 103"
       fill="#4d622c"
       stroke="none"
       pointer-events="none"
       id="path4021" />
    <rect
       x="544"
       y="50"
       width="0"
       height="0"
       fill="none"
       stroke="none"
       pointer-events="none"
       id="rect4023" />
    <path
       d="M 598 105 L 597 108 C 597 109 596 109 596 110 L 595 107 C 596 107 597 106 598 105 Z"
       fill="#4d622c"
       stroke="none"
       pointer-events="none"
       id="path4025" />
    <rect
       x="544"
       y="50"
       width="0"
       height="0"
       fill="none"
       stroke="none"
       pointer-events="none"
       id="rect4027" />
    <path
       d="M 598 105 L 598 108 C 597 109 596 109 596 110 L 595 107 C 596 106 597 106 598 105"
       fill="#4d622c"
       stroke="none"
       pointer-events="none"
       id="path4029" />
    <rect
       x="544"
       y="50"
       width="0"
       height="0"
       fill="none"
       stroke="none"
       pointer-events="none"
       id="rect4031" />
    <path
       d="M 576 101 L 576 99 C 576 101 577 103 579 105 C 579 106 579 106 579 106 C 582 108 585 109 588 109 C 591 109 594 109 596 107 L 596 110 C 594 111 591 112 588 112 C 585 112 582 111 579 109 C 579 109 579 108 579 108 C 577 106 576 104 576 101 Z"
       fill="#4d622c"
       stroke="none"
       pointer-events="none"
       id="path4033" />
    <rect
       x="544"
       y="50"
       width="0"
       height="0"
       fill="none"
       stroke="none"
       pointer-events="none"
       id="rect4035" />
    <path
       d="M 596 106 C 594 108 591 109 588 109 C 585 109 582 108 579 106 C 579 106 579 106 579 105 C 577 103 576 101 576 99 L 576 101 C 576 104 577 106 579 108 C 579 108 579 109 579 109 C 582 111 585 112 588 112 C 591 112 594 111 596 110 L 596 106 Z"
       fill="#4d622c"
       stroke="none"
       pointer-events="none"
       id="path4037" />
    <path
       d="M 620 95 L 625 99 L 622 102 L 599 103 C 599 103 599 103 599 104 C 598 104 598 105 597 106 C 597 106 596 107 596 107 C 594 109 591 109 588 109 C 585 109 582 108 579 106 C 579 106 579 106 579 105 C 574 101 575 94 580 90 C 583 89 585 88 588 88 C 591 88 593 89 596 90 C 597 91 598 93 599 93 L 600 93 L 605 93 L 607 96 L 612 96 L 614 97 L 616 98 L 620 95 Z M 583 101 C 584 101 586 100 586 98 C 586 97 584 96 583 96 C 583 96 583 96 583 96 C 581 96 579 97 579 99 C 579 100 581 101 583 101 C 583 101 583 101 583 101"
       fill="#769b3f"
       stroke="none"
       pointer-events="none"
       id="path4039" />
    <path
       d="M 589 133 L 588 118"
       fill="none"
       stroke="#000000"
       stroke-miterlimit="10"
       pointer-events="none"
       id="path4041" />
    <path
       d="M 588 113 L 592 120 L 588 118 L 585 120 Z"
       fill="#000000"
       stroke="#000000"
       stroke-miterlimit="10"
       pointer-events="none"
       id="path4043" />
    <path
       d="M 625 99 L 665 75"
       fill="none"
       stroke="#000000"
       stroke-miterlimit="10"
       pointer-events="none"
       id="path4045" />
    <path
       d="M 669 73 L 665 79 L 665 75 L 661 73 Z"
       fill="#000000"
       stroke="#000000"
       stroke-miterlimit="10"
       pointer-events="none"
       id="path4047" />
    <path
       d="M 497 34 L 527 34 L 527 54 L 497 54 Z"
       fill="#ffffff"
       stroke="#000000"
       stroke-miterlimit="10"
       pointer-events="none"
       id="path4049" />
    <path
       d="M 497 34 L 512 44 L 527 34"
       fill="none"
       stroke="#000000"
       stroke-miterlimit="10"
       pointer-events="none"
       id="path4051" />
    <rect
       x="487"
       y="14"
       width="50"
       height="20"
       fill="none"
       stroke="none"
       pointer-events="none"
       id="rect4053" />
    <g
       fill="#000000"
       font-family="Helvetica"
       text-anchor="middle"
       font-size="12px"
       id="g4055">
      <text
         x="512"
         y="28"
         id="text4057">Data</text>
    </g>
    <path
       d="M 640 42 L 533 44"
       fill="none"
       stroke="#000000"
       stroke-miterlimit="10"
       pointer-events="none"
       id="path4059" />
    <path
       d="M 528 44 L 535 40 L 533 44 L 535 47 Z"
       fill="#000000"
       stroke="#000000"
       stroke-miterlimit="10"
       pointer-events="none"
       id="path4061" />
    <rect
       x="490"
       y="72"
       width="100"
       height="40"
       fill="none"
       stroke="none"
       pointer-events="none"
       id="rect4063" />
    <g
       fill="#000000"
       font-family="Helvetica"
       font-size="12px"
       id="g4065">
      <text
         x="492"
         y="103"
         id="text4067">Symmetric key</text>
    </g>
    <rect
       x="540"
       y="143"
       width="100"
       height="40"
       fill="none"
       stroke="none"
       pointer-events="none"
       id="rect4069" />
    <g
       fill="#000000"
       font-family="Helvetica"
       text-anchor="middle"
       font-size="12px"
       id="g4071">
      <text
         x="590"
         y="160"
         id="text4073">Public-key</text>
      <text
         x="590"
         y="174"
         id="text4075">cipher</text>
    </g>
    <rect
       x="222"
       y="143"
       width="100"
       height="40"
       fill="none"
       stroke="none"
       pointer-events="none"
       id="rect4077" />
    <g
       fill="#000000"
       font-family="Helvetica"
       text-anchor="middle"
       font-size="12px"
       id="g4079">
      <text
         x="272"
         y="160"
         id="text4081">Public-key</text>
      <text
         x="272"
         y="174"
         id="text4083">cipher</text>
    </g>
    <rect
       x="17"
       y="2"
       width="100"
       height="40"
       fill="none"
       stroke="none"
       pointer-events="none"
       id="rect4085" />
  </g>
</svg>
